<svg width="178" height="177" viewBox="0 0 178 177" fill="none" xmlns="http://www.w3.org/2000/svg">
<g id="vuesax/bold/frame">
<g id="vuesax/bold/frame_2">
<g id="frame">
<path id="Vector" d="M88.9997 14.8091C69.7019 14.8091 54.0132 30.4368 54.0132 49.6595C54.0132 68.5154 68.818 83.7763 88.1159 84.4366C88.7051 84.3632 89.2944 84.3632 89.7363 84.4366C89.8836 84.4366 89.9573 84.4366 90.1046 84.4366C90.1782 84.4366 90.1782 84.4366 90.2519 84.4366C109.108 83.7763 123.913 68.5154 123.986 49.6595C123.986 30.4368 108.298 14.8091 88.9997 14.8091Z" fill="#999999"/>
<path id="Vector_2" d="M126.417 103.953C105.867 90.3061 72.3535 90.3061 51.6562 103.953C42.3019 110.189 37.146 118.627 37.146 127.651C37.146 136.676 42.3019 145.04 51.5826 151.203C61.8944 158.099 75.4471 161.548 88.9998 161.548C102.552 161.548 116.105 158.099 126.417 151.203C135.698 144.966 140.854 136.602 140.854 127.504C140.78 118.48 135.698 110.116 126.417 103.953Z" fill="#999999"/>
</g>
</g>
</g>
</svg>
