<svg width="20" height="18" viewBox="0 0 20 18" fill="none" xmlns="http://www.w3.org/2000/svg">
<path d="M19.0222 2.86094V13.0317C19.0222 14.8138 17.2997 16.2629 15.1814 16.2629C13.0738 16.2629 11.3406 14.8138 11.3406 13.0317C11.3406 11.2585 13.0738 9.80943 15.1814 9.80943C16.0801 9.80943 16.8825 10.0704 17.5351 10.5025V5.1471L7.68164 7.50527V14.7688C7.68164 16.5509 5.94846 18 3.84082 18C1.72248 18 0 16.5509 0 14.7688C0 12.9957 1.72248 11.5466 3.84082 11.5466C4.72881 11.5466 5.53121 11.8076 6.18383 12.2306V4.27404C6.18383 2.95095 7.13601 1.92488 8.64452 1.58285L14.8283 0.160755C16.0801 -0.127265 17.1393 -0.0282579 17.8882 0.457776C18.6478 0.934809 19.0222 1.74487 19.0222 2.86094Z" fill="#9664FF"/>
</svg>
