<svg width="current" height="current" viewBox="0 0 19 22" fill="none" xmlns="http://www.w3.org/2000/svg">
<path d="M18.7202 5.27977V6.44977C18.7202 7.42977 18.3302 8.26977 17.6402 8.75977C17.2102 9.07977 16.6802 9.22977 16.1302 9.22977C15.7902 9.22977 15.4502 9.17977 15.1002 9.05977L9.72021 7.26977V16.9998C9.72021 19.6198 7.59021 21.7498 4.97021 21.7498C2.35021 21.7498 0.220215 19.6198 0.220215 16.9998C0.220215 14.3798 2.35021 12.2498 4.97021 12.2498C6.23022 12.2498 7.37021 12.7498 8.22021 13.5498V2.99977C8.22021 2.02977 8.62022 1.18977 9.31021 0.689766C10.0002 0.199766 10.9202 0.0897663 11.8402 0.389766L16.2602 1.86977C17.6202 2.31977 18.7202 3.84977 18.7202 5.27977Z" fill="#292D32"/>
</svg>
