<svg width="17" height="18" viewBox="0 0 17 18" fill="none" xmlns="http://www.w3.org/2000/svg">
<path d="M13.75 0.23999H3.25C1.7975 0.23999 0.625 1.40374 0.625 2.83874V12.385C0.625 13.82 1.7975 14.9837 3.25 14.9837H3.915C4.615 14.9837 5.28 15.255 5.77 15.745L7.26625 17.2237C7.94875 17.8975 9.06 17.8975 9.7425 17.2237L11.2388 15.745C11.7288 15.255 12.4025 14.9837 13.0938 14.9837H13.75C15.2025 14.9837 16.375 13.82 16.375 12.385V2.83874C16.375 1.40374 15.2025 0.23999 13.75 0.23999ZM8.745 11.58C8.61375 11.6237 8.395 11.6237 8.255 11.58C7.1175 11.1862 4.5625 9.56749 4.5625 6.81124C4.57125 5.59499 5.5425 4.61499 6.75 4.61499C7.4675 4.61499 8.0975 4.95624 8.5 5.48999C8.9025 4.95624 9.5325 4.61499 10.25 4.61499C11.4575 4.61499 12.4375 5.59499 12.4375 6.81124C12.4288 9.56749 9.8825 11.1862 8.745 11.58Z" fill="current"/>
</svg>
