<?xml version="1.0" standalone="no"?>
<!DOCTYPE svg PUBLIC "-//W3C//DTD SVG 20010904//EN"
 "http://www.w3.org/TR/2001/REC-SVG-20010904/DTD/svg10.dtd">
<svg version="1.0" xmlns="http://www.w3.org/2000/svg"
 width="current" height="current" viewBox="0 0 512.000000 512.000000"
 preserveAspectRatio="xMidYMid meet">

<g transform="translate(0.000000,512.000000) scale(0.100000,-0.100000)"
fill="#9664FF" stroke="none">
<path d="M2315 5109 c-800 -83 -1501 -518 -1927 -1196 -604 -961 -490 -2237
274 -3068 425 -462 951 -737 1583 -827 119 -17 512 -16 635 1 622 86 1148 360
1572 820 349 378 572 862 650 1406 17 118 17 512 0 630 -59 416 -191 769 -410
1099 -92 140 -185 254 -315 385 -399 404 -893 653 -1462 737 -123 18 -478 26
-600 13z m1210 -1179 c36 -17 95 -68 216 -189 197 -197 213 -223 213 -351 1
-127 -18 -160 -209 -350 l-155 -155 -352 353 -353 352 150 150 c157 158 189
184 258 206 61 20 171 12 232 -16z m-737 -1846 c-640 -638 -666 -662 -738
-696 -76 -37 -724 -228 -770 -228 -58 0 -120 66 -120 126 0 25 86 333 167 594
69 225 28 176 762 913 l655 657 353 -352 353 -353 -662 -661z m1100 -647 c100
-55 95 -208 -8 -259 -32 -17 -90 -18 -760 -18 -670 0 -728 1 -760 18 -72 36
-100 122 -64 198 41 86 14 84 839 81 672 -2 722 -3 753 -20z"/>
</g>
</svg>
